<?xml version="1.0" standalone="no"?>
<!DOCTYPE svg PUBLIC "-//W3C//DTD SVG 20010904//EN"
 "http://www.w3.org/TR/2001/REC-SVG-20010904/DTD/svg10.dtd">
<svg version="1.0" xmlns="http://www.w3.org/2000/svg"
 width="1024.000000pt" height="1024.000000pt" viewBox="0 0 1024.000000 1024.000000"
 preserveAspectRatio="xMidYMid meet">
<metadata>
Created by potrace 1.16, written by Peter Selinger 2001-2019
</metadata>
<g transform="translate(0.000000,1024.000000) scale(0.100000,-0.100000)"
fill="#000000" stroke="none">
<path d="M7964 8925 c-37 -19 -271 -244 -954 -920 l-905 -895 -402 0 -403 0 0
-165 0 -165 195 0 195 0 0 -675 0 -675 175 0 175 0 -2 675 -3 675 155 0 155 0
927 928 c657 658 932 940 948 971 47 95 9 210 -84 252 -57 26 -112 24 -172 -6z"/>
<path d="M4835 8544 c-16 -2 -66 -9 -110 -15 -319 -42 -646 -159 -936 -335
-321 -194 -624 -491 -824 -809 -461 -732 -472 -1710 -27 -2485 250 -436 614
-774 1067 -991 329 -157 618 -226 985 -236 321 -8 555 25 839 119 863 287
1492 1036 1636 1948 25 160 31 485 11 654 -33 282 -109 542 -232 795 l-76 154
-144 -144 -145 -145 40 -86 c82 -176 137 -367 166 -570 19 -134 19 -422 0
-557 -132 -925 -830 -1628 -1743 -1755 -144 -20 -406 -21 -556 -1 -367 48
-735 207 -1026 442 -102 83 -273 260 -347 360 -200 270 -326 564 -390 913 -28
150 -25 526 5 682 60 317 178 585 374 850 80 108 289 317 403 401 578 427
1283 536 1956 301 194 -68 371 -161 552 -291 48 -35 91 -63 95 -63 4 0 69 62
145 138 l138 138 -58 46 c-266 208 -618 381 -948 466 -220 57 -347 74 -595 77
-124 2 -238 1 -255 -1z"/>
<path d="M3795 6270 l0 -840 178 0 177 0 0 340 0 340 285 0 285 0 0 -416 0
-416 -227 -238 c-126 -130 -239 -242 -252 -249 -23 -12 -31 -6 -143 108 -94
96 -125 121 -154 127 -147 27 -245 -113 -165 -237 16 -24 100 -114 187 -201
191 -188 224 -203 326 -151 30 15 163 188 550 716 l248 339 0 809 0 809 -185
0 -185 0 0 -335 0 -335 -285 0 -285 0 0 335 0 335 -177 0 -178 0 0 -840z"/>
<path d="M8148 3113 c23 -2 59 -2 80 0 20 2 1 4 -43 4 -44 0 -61 -2 -37 -4z"/>
<path d="M8100 2625 l0 -476 83 3 82 3 1 123 c0 110 3 125 21 143 l20 21 107
-141 107 -141 100 0 c70 0 98 3 93 11 -3 6 -69 92 -145 191 l-139 181 142 146
143 146 -95 3 -95 3 -82 -88 c-45 -48 -102 -111 -125 -140 -24 -29 -46 -52
-50 -53 -4 0 -5 122 -2 270 l5 270 -85 0 -86 0 0 -475z"/>
<path d="M1500 2620 l0 -470 85 0 85 0 0 190 0 190 210 0 210 0 0 -190 0 -190
85 0 85 0 0 470 0 470 -85 0 -85 0 0 -200 0 -200 -210 0 -210 0 0 200 0 200
-85 0 -85 0 0 -470z"/>
<path d="M5380 3015 l0 -75 140 0 140 0 0 -390 0 -390 85 0 85 0 0 390 0 390
140 0 140 0 0 75 0 75 -365 0 -365 0 0 -75z"/>
<path d="M2573 2826 c-84 -27 -136 -84 -149 -164 l-7 -42 82 0 c69 0 82 3 87
18 22 67 56 87 135 80 71 -7 101 -38 107 -111 l4 -54 -123 -7 c-141 -8 -182
-16 -229 -49 -44 -29 -69 -74 -77 -135 -7 -61 9 -112 49 -158 77 -87 284 -81
356 11 11 14 22 25 25 25 2 0 2 -20 -1 -45 l-5 -45 87 0 86 0 0 230 c0 253 -8
310 -50 368 -45 63 -105 86 -230 89 -68 2 -120 -2 -147 -11z m257 -409 c0 -73
-64 -140 -146 -153 -75 -11 -124 21 -124 81 0 72 58 100 218 104 l52 1 0 -33z"/>
<path d="M3438 2831 c-40 -13 -96 -50 -113 -74 -14 -20 -15 -19 -15 26 l0 47
-80 0 -80 0 0 -470 0 -470 80 0 80 0 0 176 0 176 42 -36 c45 -39 119 -66 179
-66 20 0 67 9 104 21 53 16 78 31 115 68 69 69 93 139 94 266 0 89 -3 107 -28
163 -52 113 -145 173 -276 178 -41 2 -87 -1 -102 -5z m147 -144 c24 -14 50
-40 65 -67 35 -62 36 -194 3 -256 -72 -135 -287 -113 -331 33 -27 92 -10 207
41 262 51 55 152 68 222 28z"/>
<path d="M3959 2833 c-1 -5 -2 -218 -3 -475 l-1 -468 83 0 82 0 0 178 0 179
40 -38 c145 -138 407 -55 470 148 57 186 -4 376 -145 448 -52 27 -68 30 -149
30 -98 0 -134 -12 -188 -63 l-28 -26 0 47 0 47 -80 0 c-44 0 -80 -3 -81 -7z
m414 -137 c127 -54 153 -297 41 -385 -88 -69 -230 -36 -275 63 -28 62 -26 189
4 247 39 76 146 111 230 75z"/>
<path d="M6450 2831 c-45 -14 -88 -40 -108 -66 -11 -14 -22 -25 -24 -25 -2 0
-2 20 0 45 l4 45 -86 0 -86 0 0 -335 0 -335 85 0 85 0 0 213 c0 182 3 217 18
247 25 49 73 74 151 76 l66 3 3 62 c2 43 -1 65 -10 70 -16 10 -64 10 -98 0z"/>
<path d="M6804 2831 c-89 -23 -154 -89 -169 -173 l-7 -38 86 0 c79 0 86 2 86
19 0 11 11 32 23 47 20 23 34 28 83 31 96 6 144 -40 144 -138 l0 -26 -127 -7
c-155 -8 -193 -18 -239 -58 -49 -43 -64 -78 -64 -148 0 -82 26 -131 87 -167
42 -25 58 -28 133 -28 75 0 91 3 132 28 26 15 54 37 63 49 14 22 15 21 15 -25
l0 -47 86 0 86 0 -4 253 c-4 275 -8 299 -66 360 -52 55 -97 71 -212 74 -58 1
-119 -2 -136 -6z m246 -405 c0 -14 -5 -37 -11 -53 -34 -91 -168 -143 -233 -92
-23 18 -27 27 -24 67 2 35 9 49 29 64 28 21 96 35 182 37 54 1 57 0 57 -23z"/>
<path d="M7577 2830 c-94 -24 -176 -91 -218 -178 -31 -64 -38 -215 -15 -293
25 -85 73 -142 153 -181 62 -30 75 -33 163 -33 81 0 103 4 150 26 64 30 112
75 140 130 31 61 34 58 -85 73 -37 4 -42 2 -66 -33 -35 -51 -88 -75 -151 -69
-60 6 -95 30 -127 88 -28 51 -39 154 -22 217 40 147 229 183 302 58 20 -34 23
-35 77 -34 32 1 67 4 79 7 l23 7 -24 50 c-29 62 -86 117 -149 145 -55 25 -171
34 -230 20z"/>
<path d="M4678 2813 c5 -10 63 -155 127 -322 134 -346 128 -292 57 -488 l-41
-113 87 0 87 0 42 113 c22 61 100 271 172 466 72 194 131 355 131 357 0 2 -37
4 -82 4 l-83 0 -69 -223 c-38 -122 -72 -228 -76 -235 -4 -8 -41 86 -86 220
l-79 233 -98 3 c-92 3 -97 2 -89 -15z"/>
</g>
</svg>
